<?xml version="1.0" standalone="no"?>
<!DOCTYPE svg PUBLIC "-//W3C//DTD SVG 20010904//EN"
 "http://www.w3.org/TR/2001/REC-SVG-20010904/DTD/svg10.dtd">
<svg version="1.0" xmlns="http://www.w3.org/2000/svg"
 width="237.000000pt" height="237.000000pt" viewBox="0 0 237.000000 237.000000"
 preserveAspectRatio="xMidYMid meet">

<g transform="translate(0.000000,237.000000) scale(0.100000,-0.100000)"
fill="#137f81" stroke="none">
<path d="M337 2030 c-211 -54 -306 -280 -241 -572 56 -252 215 -521 443 -749
228 -227 447 -338 645 -327 95 5 154 28 215 84 85 76 121 172 121 319 0 150
-41 295 -132 479 l-39 78 -25 -33 c-14 -19 -45 -66 -70 -106 l-45 -71 26 -63
c40 -95 65 -204 65 -286 0 -130 -40 -183 -139 -183 -131 1 -299 97 -472 269
-176 176 -305 384 -364 586 -51 174 -32 323 45 355 127 53 399 -93 596 -318
41 -46 74 -88 74 -92 0 -4 -21 -42 -46 -83 -81 -136 -154 -332 -166 -449 l-5
-47 71 -49 c39 -27 90 -59 112 -70 l42 -21 -5 62 c-22 275 257 726 582 940
118 79 195 110 285 115 71 4 78 3 108 -22 103 -88 49 -368 -124 -633 -71 -110
-166 -225 -248 -300 l-63 -58 -5 -70 c-6 -77 -35 -168 -67 -214 -12 -16 -21
-32 -21 -35 0 -3 28 11 63 31 292 170 586 538 692 867 116 361 -5 638 -286
654 -203 12 -442 -105 -667 -324 -59 -57 -108 -104 -109 -104 -2 0 -51 48
-110 108 -165 164 -307 260 -463 312 -74 24 -215 34 -273 20z"/>
</g>
</svg>
